<svg width="120" height="60" viewBox="0 0 120 60" fill="none" xmlns="http://www.w3.org/2000/svg">
  <defs>
    <linearGradient id="logo-gradient" x1="0%" y1="0%" x2="100%" y2="0%">
      <stop offset="0%" stop-color="#8DE016" stop-opacity="1" />
      <stop offset="50%" stop-color="#8DE016" stop-opacity="0.8" />
      <stop offset="100%" stop-color="#22c55e" stop-opacity="1" />
    </linearGradient>
    <filter id="glow" x="-20%" y="-20%" width="140%" height="140%">
      <feGaussianBlur stdDeviation="2" result="blur" />
      <feComposite in="SourceGraphic" in2="blur" operator="over" />
    </filter>
  </defs>

  <!-- Base Path (Thickest) -->
  <path
    d="M30 45 C10 45 5 25 20 15 C30 8 45 20 60 30 C75 40 90 52 100 45 C115 35 110 15 90 15 C70 15 60 25 50 35 L45 40 M60 30 C75 40 90 52 100 45"
    stroke="url(#logo-gradient)"
    stroke-width="12"
    stroke-linecap="round"
    opacity="0.2"
  />

  <g filter="url(#glow)">
    <!-- Outer Line -->
    <path
      d="M30 48 C12 48 2 28 15 15 C25 5 45 18 60 28 C75 38 95 51 108 42 C120 32 115 12 95 10 C75 8 58 20 48 28"
      stroke="url(#logo-gradient)"
      stroke-width="3"
      stroke-linecap="round"
      fill="none"
    />

    <!-- Middle Line -->
    <path
      d="M30 42 C16 42 8 28 18 18 C26 10 42 21 56 30 C70 39 88 49 100 42 C110 35 108 19 92 16 C78 13 62 23 54 28"
      stroke="url(#logo-gradient)"
      stroke-width="3"
      stroke-linecap="round"
      fill="none"
      opacity="0.9"
    />

    <!-- Inner Line -->
    <path
      d="M30 36 C20 36 14 28 21 21 C27 15 39 24 52 32 C65 40 81 47 92 42 C100 38 101 26 89 22 C79 19 66 26 60 30"
      stroke="url(#logo-gradient)"
      stroke-width="3"
      stroke-linecap="round"
      fill="none"
      opacity="0.8"
    />
  </g>
</svg>
